<svg width="68" height="68" viewBox="0 0 68 68" fill="none" xmlns="http://www.w3.org/2000/svg">
<circle cx="33.7778" cy="33.7778" r="31.7778" stroke="white" stroke-width="4"/>
<path d="M41.8804 45.9706H25.5902C23.3391 45.9706 21.5 44.1315 21.5 41.8804V25.5902C21.5 23.3391 23.3391 21.5 25.5902 21.5H41.8804C44.1315 21.5 45.9706 23.3391 45.9706 25.5902V41.8804C45.9706 44.1416 44.1416 45.9706 41.8804 45.9706Z" fill="white"/>
<path d="M33.7404 40.0212C32.0622 40.0212 30.4844 39.368 29.2985 38.1821C28.1127 36.9963 27.4595 35.4185 27.4595 33.7402C27.4595 32.062 28.1127 30.4842 29.2985 29.2984C30.4844 28.1125 32.0622 27.4593 33.7404 27.4593C35.4187 27.4593 36.9965 28.1125 38.1823 29.2984C39.3682 30.4842 40.0214 32.062 40.0214 33.7402C40.0214 35.4185 39.3682 36.9963 38.1823 38.1821C36.9864 39.368 35.4187 40.0212 33.7404 40.0212ZM33.7404 28.7959C31.017 28.7959 28.7961 31.0068 28.7961 33.7402C28.7961 36.4637 31.007 38.6846 33.7404 38.6846C36.4638 38.6846 38.6848 36.4737 38.6848 33.7402C38.6747 31.0168 36.4638 28.7959 33.7404 28.7959Z" fill="black"/>
<path d="M41.2455 27.2529C41.9116 27.2529 42.4515 26.713 42.4515 26.047C42.4515 25.3809 41.9116 24.841 41.2455 24.841C40.5795 24.841 40.0396 25.3809 40.0396 26.047C40.0396 26.713 40.5795 27.2529 41.2455 27.2529Z" fill="black"/>
</svg>
